# xmcd
#
# Track frame offsets: 
#        187
#        22860
#        45745
#        66415
#        91050
#        114795
#        135722
#        156125
#
# Disc length: 2406 seconds
#
# Revision: 0
# Processed by: cddbd v1.5.2PL0 Copyright (c) Steve Scherf et al.
# Submitted via: ExactAudioCopy v1.0b1
#
DISCID=5b096408
DTITLE=Merge - Merge
DYEAR=1982
DGENRE=Funk
TTITLE0=Take It To The Top
TTITLE1=Changin'
TTITLE2=Volcanic Voodoo
TTITLE3=What Makes You Wanna Lie To Me
TTITLE4=Worry
TTITLE5=Show Him The Way To Go
TTITLE6=Heavenly
TTITLE7=You're My Everything
EXTD=
EXTT0=
EXTT1=
EXTT2=
EXTT3=
EXTT4=
EXTT5=
EXTT6=
EXTT7=
PLAYORDER=
